# xmcd CD database file
#
# Track frame offsets:
#	150
#	94495
#	123757
#	140537
#	163210
#
# Disc length: 2401 seconds
#
# Revision: 0
# Processed by: cddbd v1.5.1PL0 Copyright (c) Steve Scherf et al.
# Submitted via: CDex 1.51
#
DISCID=42095f05
DTITLE=Kühn, Joachim - United Nations
DYEAR=1994
DGENRE=Jazz
TTITLE0=united nations
TTITLE1=pleasure point
TTITLE2=l.a.
TTITLE3=portrait
TTITLE4=nice sky
EXTD=YEAR: 1994
EXTT0=
EXTT1=
EXTT2=
EXTT3=
EXTT4=
PLAYORDER=
